# xmcd CD database file
#
# Track frame offsets:
#	182
#	25830
#	39442
#	63032
#	84597
#	110717
#	124160
#	150762
#	165460
#	178570
#
# Disc length: 2948 seconds
#
# Revision: 0
# Processed by: cddbd v1.4PL0 Copyright (c) Steve Scherf et al.
# Submitted via: CDex 1.50beta10
#
DISCID=6d0b820a
DTITLE=Miles Davis - The best of Miles Davis
DYEAR=1993
DGENRE=Jazz
TTITLE0=Miles
TTITLE1=Moose the mooche
TTITLE2=Two bass hit
TTITLE3=Stella by starlight
TTITLE4=Dr. Jekill
TTITLE5=Night in Tunesia
TTITLE6=Round midnight
TTITLE7=Ornithology
TTITLE8=Yardbird Suite
TTITLE9=Milestone
EXTD=YEAR: 1993
EXTT0=
EXTT1=
EXTT2=
EXTT3=
EXTT4=
EXTT5=
EXTT6=
EXTT7=
EXTT8=
EXTT9=
PLAYORDER=
